<svg xmlns="http://www.w3.org/2000/svg" viewBox="0 0 180 180" role="img" aria-labelledby="title">
  <title id="title">Isometric downward arrow coin</title>
  <defs>
    <linearGradient id="coinTop" x1="32" y1="22" x2="150" y2="152" gradientUnits="userSpaceOnUse">
      <stop stop-color="#B9E2DA"/>
      <stop offset="1" stop-color="#5C9EAD"/>
    </linearGradient>
    <linearGradient id="coinSide" x1="58" y1="73" x2="139" y2="159" gradientUnits="userSpaceOnUse">
      <stop stop-color="#326273"/>
      <stop offset="1" stop-color="#123F49"/>
    </linearGradient>
    <linearGradient id="arrow" x1="75" y1="54" x2="104" y2="124" gradientUnits="userSpaceOnUse">
      <stop stop-color="#FFD78A"/>
      <stop offset="1" stop-color="#E39774"/>
    </linearGradient>
    <filter id="shadow" x="-30%" y="-30%" width="160%" height="180%">
      <feDropShadow dx="0" dy="9" stdDeviation="7" flood-color="#123F49" flood-opacity=".24"/>
    </filter>
  </defs>
  <g filter="url(#shadow)">
    <path fill="url(#coinSide)" d="M90 27c35.9 0 65 20.2 65 45.2v31.6c0 25-29.1 45.2-65 45.2s-65-20.2-65-45.2V72.2C25 47.2 54.1 27 90 27Z"/>
    <ellipse cx="90" cy="72" rx="65" ry="45" fill="url(#coinTop)" stroke="#123F49" stroke-width="4"/>
    <ellipse cx="90" cy="72" rx="50" ry="33" fill="#FFF9EE" fill-opacity=".72" stroke="#326273" stroke-width="3"/>
    <path fill="url(#arrow)" stroke="#8D5A27" stroke-linejoin="round" stroke-width="4" d="M82 48h16v36h21L90 111 61 84h21V48Z"/>
    <path fill="none" stroke="#FFF9EE" stroke-linecap="round" stroke-width="3" d="M46 64c5-12 20-21 37-24"/>
  </g>
</svg>
