<svg width="480" height="360" viewBox="0 0 480 360" fill="none" xmlns="http://www.w3.org/2000/svg">
  <ellipse cx="240" cy="300" rx="158" ry="30" fill="#0c3e48" opacity="0.12"/>
  <!-- platform slab -->
  <path d="M240 150 L370 225 L240 300 L110 225 Z" fill="#F2E7D7"/>
  <rect width="150" height="26" transform="matrix(0.866 0.5 0 1 110 225)" fill="#DBC8AD"/>
  <rect width="150" height="26" transform="matrix(-0.866 0.5 0 1 370 225)" fill="#CDB695"/>
  <!-- connectors from batch to recipients -->
  <g stroke="#E7A24A" stroke-width="3" stroke-linecap="round" fill="none" opacity="0.9">
    <path d="M300 196 C338 182 350 168 372 162"/>
    <path d="M306 206 C346 206 360 204 384 202"/>
    <path d="M300 216 C340 232 352 244 374 248"/>
  </g>
  <!-- recipient chips -->
  <g>
    <rect x="370" y="148" width="40" height="26" rx="7" fill="#5C9EAD"/>
    <rect x="382" y="190" width="40" height="26" rx="7" fill="#5C9EAD"/>
    <rect x="372" y="236" width="40" height="26" rx="7" fill="#5C9EAD"/>
    <circle cx="390" cy="161" r="5" fill="#F2E7D7"/>
    <circle cx="402" cy="203" r="5" fill="#F2E7D7"/>
    <circle cx="392" cy="249" r="5" fill="#F2E7D7"/>
  </g>
  <!-- batch card stack -->
  <g>
    <!-- card 1 -->
    <rect width="96" height="16" transform="matrix(0.866 0.5 0 1 157 248)" fill="#2C5563"/>
    <rect width="96" height="16" transform="matrix(-0.866 0.5 0 1 323 248)" fill="#1F4452"/>
    <rect width="96" height="96" rx="8" transform="matrix(0.866 0.5 -0.866 0.5 240 200)" fill="#5C9EAD"/>
    <!-- card 2 -->
    <rect width="96" height="16" transform="matrix(0.866 0.5 0 1 157 226)" fill="#2C5563"/>
    <rect width="96" height="16" transform="matrix(-0.866 0.5 0 1 323 226)" fill="#1F4452"/>
    <rect width="96" height="96" rx="8" transform="matrix(0.866 0.5 -0.866 0.5 240 178)" fill="#6FAAB7"/>
    <!-- card 3 (top) -->
    <rect width="96" height="16" transform="matrix(0.866 0.5 0 1 157 204)" fill="#356B7B"/>
    <rect width="96" height="16" transform="matrix(-0.866 0.5 0 1 323 204)" fill="#234B57"/>
    <rect width="96" height="96" rx="8" transform="matrix(0.866 0.5 -0.866 0.5 240 156)" fill="#7FB8C4"/>
    <!-- rows on top card -->
    <rect width="58" height="9" rx="4" transform="matrix(0.866 0.5 -0.866 0.5 222 186)" fill="#1F4452" opacity="0.55"/>
    <rect width="58" height="9" rx="4" transform="matrix(0.866 0.5 -0.866 0.5 240 196)" fill="#1F4452" opacity="0.4"/>
    <rect width="58" height="9" rx="4" transform="matrix(0.866 0.5 -0.866 0.5 258 206)" fill="#1F4452" opacity="0.28"/>
  </g>
  <!-- approve-once badge -->
  <circle cx="240" cy="116" r="20" fill="#E7A24A"/>
  <circle cx="240" cy="116" r="20" fill="none" stroke="#fff" stroke-width="2" opacity="0.6"/>
  <path d="M231 116 l6 6 l12 -13" stroke="#fff" stroke-width="4" stroke-linecap="round" stroke-linejoin="round" fill="none"/>
</svg>
