<svg width="480" height="360" viewBox="0 0 480 360" fill="none" xmlns="http://www.w3.org/2000/svg">
  <ellipse cx="240" cy="300" rx="158" ry="30" fill="#0c3e48" opacity="0.12"/>
  <!-- platform slab -->
  <path d="M240 150 L370 225 L240 300 L110 225 Z" fill="#F2E7D7"/>
  <rect width="150" height="26" transform="matrix(0.866 0.5 0 1 110 225)" fill="#DBC8AD"/>
  <rect width="150" height="26" transform="matrix(-0.866 0.5 0 1 370 225)" fill="#CDB695"/>
  <!-- archive cube -->
  <rect width="120" height="86" transform="matrix(-0.866 0.5 0 1 344 180)" fill="#234B57"/>
  <g transform="matrix(0.866 0.5 0 1 136 180)">
    <rect width="120" height="86" fill="#356B7B"/>
    <rect x="12" y="12" width="96" height="28" rx="5" fill="#2A4E5B"/>
    <rect x="46" y="22" width="28" height="7" rx="3.5" fill="#7FB8C4"/>
    <rect x="12" y="48" width="96" height="28" rx="5" fill="#2A4E5B"/>
    <rect x="46" y="58" width="28" height="7" rx="3.5" fill="#7FB8C4"/>
  </g>
  <rect width="120" height="120" rx="8" transform="matrix(0.866 0.5 -0.866 0.5 240 120)" fill="#7FB8C4"/>
  <!-- compliance shield -->
  <path d="M240 212 l36 13 v22 c0 27 -19 42 -36 50 c-17 -8 -36 -23 -36 -50 v-22 Z" fill="#E7A24A" stroke="#C97A56" stroke-width="3"/>
  <path d="M225 250 l10 10 l21 -23" stroke="#fff" stroke-width="5.5" stroke-linecap="round" stroke-linejoin="round" fill="none"/>
</svg>
