<svg width="480" height="360" viewBox="0 0 480 360" fill="none" xmlns="http://www.w3.org/2000/svg">
  <ellipse cx="240" cy="300" rx="158" ry="30" fill="#0c3e48" opacity="0.12"/>
  <!-- platform slab -->
  <path d="M240 150 L370 225 L240 300 L110 225 Z" fill="#F2E7D7"/>
  <rect width="150" height="26" transform="matrix(0.866 0.5 0 1 110 225)" fill="#DBC8AD"/>
  <rect width="150" height="26" transform="matrix(-0.866 0.5 0 1 370 225)" fill="#CDB695"/>
  <!-- sheet thickness -->
  <rect width="96" height="9" transform="matrix(0.866 0.5 0 1 152 210)" fill="#D9CDBA"/>
  <rect width="120" height="9" transform="matrix(-0.866 0.5 0 1 339 198)" fill="#C9BCA6"/>
  <!-- invoice sheet + rows -->
  <g transform="matrix(0.866 0.5 -0.866 0.5 256 150)">
    <rect width="96" height="120" rx="6" fill="#FBF4E8"/>
    <rect x="14" y="16" width="68" height="11" rx="5" fill="#1F4452" opacity="0.55"/>
    <rect x="14" y="38" width="68" height="7" rx="3" fill="#1F4452" opacity="0.26"/>
    <rect x="14" y="52" width="50" height="7" rx="3" fill="#1F4452" opacity="0.26"/>
    <rect x="14" y="72" width="68" height="7" rx="3" fill="#1F4452" opacity="0.26"/>
    <rect x="14" y="86" width="40" height="7" rx="3" fill="#1F4452" opacity="0.26"/>
    <rect x="14" y="100" width="46" height="13" rx="4" fill="#5C9EAD"/>
  </g>
  <!-- encrypted padlock badge -->
  <path d="M291 238 a15 15 0 0 1 30 0 v9" stroke="#C97A56" stroke-width="6" fill="none"/>
  <rect x="282" y="244" width="48" height="36" rx="8" fill="#E7A24A"/>
  <circle cx="306" cy="260" r="5.5" fill="#7a3d1f"/>
  <rect x="303" y="262" width="6" height="11" rx="3" fill="#7a3d1f"/>
</svg>
