<svg width="480" height="360" viewBox="0 0 480 360" fill="none" xmlns="http://www.w3.org/2000/svg">
  <defs>
    <linearGradient id="tPlatTop" x1="0" y1="0" x2="0.4" y2="1"><stop offset="0" stop-color="#F7EEDF"/><stop offset="1" stop-color="#E9D7BD"/></linearGradient>
    <linearGradient id="tPlatL" x1="0" y1="0" x2="0" y2="1"><stop offset="0" stop-color="#DCC9AE"/><stop offset="1" stop-color="#CBB18F"/></linearGradient>
    <linearGradient id="tPlatR" x1="0" y1="0" x2="0" y2="1"><stop offset="0" stop-color="#CAB492"/><stop offset="1" stop-color="#B79F7B"/></linearGradient>
    <linearGradient id="tCoinTop" x1="0" y1="0" x2="0" y2="1"><stop offset="0" stop-color="#F8CD7C"/><stop offset="1" stop-color="#EDB45E"/></linearGradient>
    <linearGradient id="tBarTop" x1="0" y1="0" x2="1" y2="1"><stop offset="0" stop-color="#9CCBD5"/><stop offset="1" stop-color="#6CA9B6"/></linearGradient>
    <marker id="tArrow" markerWidth="9" markerHeight="9" refX="6" refY="4.5" orient="auto"><path d="M0 0 L9 4.5 L0 9 Z" fill="#2f7e96"/></marker>
  </defs>
  <ellipse cx="236" cy="300" rx="168" ry="32" fill="#0b3a44" opacity="0.13"/>
  <!-- platform -->
  <path d="M240 150 L370 225 L240 300 L110 225 Z" fill="url(#tPlatTop)"/>
  <rect width="150" height="26" transform="matrix(0.866 0.5 0 1 110 225)" fill="url(#tPlatL)"/>
  <rect width="150" height="26" transform="matrix(-0.866 0.5 0 1 370 225)" fill="url(#tPlatR)"/>
  <path d="M240 150 L370 225 L240 300 L110 225 Z" fill="none" stroke="#fff" stroke-opacity="0.35" stroke-width="1.4"/>
  <!-- corridor-inventory bars -->
  <g>
    <rect width="26" height="42" transform="matrix(0.866 0.5 0 1 235.5 207)" fill="#2B5462"/>
    <rect width="26" height="42" transform="matrix(-0.866 0.5 0 1 280.5 207)" fill="#1C414E"/>
    <path d="M258 194 L280.5 207 L258 220 L235.5 207 Z" fill="url(#tBarTop)"/>
    <rect width="26" height="66" transform="matrix(0.866 0.5 0 1 265.5 198)" fill="#2B5462"/>
    <rect width="26" height="66" transform="matrix(-0.866 0.5 0 1 310.5 198)" fill="#1C414E"/>
    <path d="M288 185 L310.5 198 L288 211 L265.5 198 Z" fill="url(#tBarTop)"/>
    <rect width="26" height="90" transform="matrix(0.866 0.5 0 1 295.5 189)" fill="#2B5462"/>
    <rect width="26" height="90" transform="matrix(-0.866 0.5 0 1 340.5 189)" fill="#1C414E"/>
    <path d="M318 176 L340.5 189 L318 202 L295.5 189 Z" fill="url(#tBarTop)"/>
  </g>
  <!-- yield trend + arrow -->
  <path d="M258 190 L288 181 L318 172 L352 154" fill="none" stroke="#2f7e96" stroke-width="4.5" stroke-linecap="round" stroke-linejoin="round" marker-end="url(#tArrow)"/>
  <!-- coin stack (available USD / liquidity) -->
  <g>
    <path d="M150 256 v14 a46 23 0 0 0 92 0 v-14 a46 23 0 0 1 -92 0 Z" fill="#B26A48"/>
    <ellipse cx="196" cy="256" rx="46" ry="23" fill="url(#tCoinTop)"/>
    <path d="M150 240 v14 a46 23 0 0 0 92 0 v-14 a46 23 0 0 1 -92 0 Z" fill="#B97A4A"/>
    <ellipse cx="196" cy="240" rx="46" ry="23" fill="url(#tCoinTop)"/>
    <path d="M150 224 v14 a46 23 0 0 0 92 0 v-14 a46 23 0 0 1 -92 0 Z" fill="#C9824E"/>
    <ellipse cx="196" cy="224" rx="46" ry="23" fill="url(#tCoinTop)"/>
    <ellipse cx="196" cy="224" rx="27" ry="13.5" fill="none" stroke="#cf914c" stroke-width="2.4" opacity="0.7"/>
    <path d="M196 214 v20 M189 219 h14 M189 229 h14" stroke="#9a5a36" stroke-width="3" stroke-linecap="round"/>
  </g>
</svg>
