<svg width="64" height="64" viewBox="0 0 64 64" fill="none" xmlns="http://www.w3.org/2000/svg">
  <path d="M28.8 6.4C30.3 17.7 23.9 22.6 17.6 26.2C11.5 29.7 7.4 33.7 8.2 41.1C14.1 34.8 22.6 34.1 28.8 29.7C35.3 25.1 37.3 16.6 28.8 6.4Z" fill="#3B7180"/>
  <path d="M35.9 4.1C42.1 14.4 43 23.9 36.1 30.6C30.8 35.7 22.6 36.9 17.8 42.5C14.9 45.8 15.5 50.2 19.4 53.4C19.3 47.2 25.1 43.4 32.1 40.8C40.3 37.7 46.2 31.7 46.6 23.8C46.9 16.2 42.9 9.5 35.9 4.1Z" fill="#326A7A"/>
  <path d="M50.6 28.4C52.3 36 48.7 40.3 43.5 43.2C38.9 45.8 34.4 48.1 32.7 52.1C31.7 54.4 32.3 57.3 34.6 59.9C35 55.5 39 52.7 43.5 50.4C49.1 47.6 53.9 42.3 53.6 36.5C53.4 33.4 52.4 30.8 50.6 28.4Z" fill="#2A6172"/>
  <path d="M57.7 31.7C61.6 39.7 59.9 48.2 53.2 54.8C49.5 58.4 45.7 60.8 42.5 62.4C41.9 58 44.7 54.3 49.7 50.5C56.1 45.7 59.4 40.9 57.7 31.7Z" fill="#245A6C"/>
</svg>
